<?xml version="1.0" encoding="UTF-8"?>
<svg version="1.1" xmlns="http://www.w3.org/2000/svg" width="187" height="187">
<path d="M0 0 C1.46048004 -0.00322768 2.92095978 -0.00659278 4.38143921 -0.01008606 C7.4253616 -0.01602601 10.46925583 -0.01793138 13.51318359 -0.01733398 C16.59267063 -0.01725289 19.67200839 -0.02417751 22.75146484 -0.0378418 C83.2892855 -0.30246325 83.2892855 -0.30246325 99.3984375 14.41796875 C106.34598872 22.03035741 108.66280088 31.26133592 110.5234375 41.16796875 C110.69703796 42.03467194 110.87063843 42.90137512 111.04949951 43.79434204 C111.63491301 47.96148347 111.67892569 52.02162439 111.68457031 56.22412109 C111.68953522 57.1161322 111.69450012 58.00814331 111.69961548 58.92718506 C111.7141806 61.86943344 111.72103233 64.81162778 111.7265625 67.75390625 C111.73080357 69.27128828 111.73080357 69.27128828 111.73513031 70.81932449 C111.75010596 76.18049631 111.75934363 81.54164137 111.76367188 86.90283203 C111.76913105 92.40083281 111.79310957 97.89858276 111.82164383 103.39650536 C111.84041639 107.65716222 111.84548368 111.91776066 111.84700775 116.17845535 C111.85000572 118.20273829 111.85793567 120.22702092 111.87119293 122.25126266 C111.97638596 139.55899111 111.87696904 159.14542991 100.390625 173.2890625 C89.63823442 184.1089367 73.62948984 187.21726955 58.86486816 187.32571411 C58.03620239 187.32683197 57.20753662 187.32794983 56.35375977 187.32910156 C55.01552406 187.33654892 55.01552406 187.33654892 53.6502533 187.34414673 C50.71344208 187.35868836 47.77668498 187.36555906 44.83984375 187.37109375 C43.32383733 187.37533482 43.32383733 187.37533482 41.77720451 187.37966156 C36.42251197 187.39462636 31.06784614 187.40387134 25.71313477 187.40820312 C20.22300976 187.41366563 14.73313552 187.43765446 9.24308872 187.46617508 C4.98672307 187.484946 0.73041589 187.49001481 -3.52598763 187.491539 C-5.5474795 187.49453652 -7.56897107 187.50246489 -9.59042168 187.51572418 C-26.88872263 187.62103682 -46.46269637 187.514457 -60.59765625 176.03515625 C-76.58424697 160.148274 -75.64271833 133.64119166 -75.7421875 112.66796875 C-75.75607888 108.06895847 -75.75081207 103.47009773 -75.73730469 98.87109375 C-75.72591087 94.95487762 -75.73268155 91.03893329 -75.74418354 87.12272644 C-75.88731412 29.7923953 -75.88731412 29.7923953 -62.4765625 14.16796875 C-46.28146934 -0.8482788 -20.64997287 0.0109518 0 0 Z M-17.5078125 19.59375 C-18.84851807 19.64793594 -18.84851807 19.64793594 -20.21630859 19.70321655 C-31.35747109 20.23532345 -40.98475367 21.67615992 -49.1640625 29.85546875 C-66.14172198 51.47332455 -58.32329508 115.13112116 -55.19921875 141.50976562 C-53.87668692 150.4654287 -51.57865757 157.30858979 -44.2421875 163.0703125 C-36.02475249 168.17893914 -25.85049603 168.3199322 -16.4765625 168.72265625 C-15.51741943 168.76470184 -14.55827637 168.80674744 -13.57006836 168.85006714 C-3.83739886 169.24412436 5.8883325 169.31970582 15.62792969 169.29833984 C18.52283966 169.29296986 21.41759458 169.29833688 24.3125 169.3046875 C34.03748602 169.30884286 43.74419627 169.15579889 53.4609375 168.7421875 C54.35433838 168.70606354 55.24773926 168.66993958 56.16821289 168.63272095 C67.59178876 168.08945813 77.81777224 166.87363401 86.2109375 158.48046875 C103.18859698 136.86261295 95.37017008 73.20481634 92.24609375 46.82617188 C90.9230534 37.86706534 88.6228487 31.03674567 81.29296875 25.265625 C73.37071377 20.35137853 63.6949503 19.99996941 54.6484375 19.61328125 C53.68663574 19.57123566 52.72483398 19.52919006 51.73388672 19.48587036 C41.67781284 19.08131683 31.62752615 19.01656551 21.56445312 19.03759766 C18.52468891 19.04296654 15.48507236 19.0376032 12.4453125 19.03125 C2.45219219 19.02717623 -7.52307146 19.16890997 -17.5078125 19.59375 Z " fill="#FEFEFE" transform="translate(75.4765625,-0.16796875)"/>
<path d="M0 0 C10.81288868 7.34841429 17.22588972 18.03806547 20.1875 30.75 C21.8389706 46.19870655 18.77822553 59.30371964 9.1875 71.75 C2.06483134 79.74954147 -9.16237757 85.82529975 -19.86108398 86.96899414 C-35.57949152 87.82370151 -48.78461696 84.67867278 -60.84375 73.94140625 C-71.13440093 63.0865749 -74.45261102 49.75071963 -74.12109375 35.265625 C-73.52328038 23.36889094 -67.74461973 12.10911455 -59.125 3.9375 C-41.68202223 -10.17977384 -18.99709398 -11.24895674 0 0 Z M-47.08984375 20.7734375 C-52.48968935 26.96917872 -55.25666636 33.46312468 -54.8125 41.75 C-53.08385276 51.26458686 -48.65745743 58.14408962 -40.8125 63.75 C-33.82903545 67.50037911 -27.27853473 68.66549828 -19.625 66.5625 C-10.9784071 63.58229874 -5.28634573 58.35647136 -1 50.375 C1.70788074 42.10883774 1.52126558 35.84233554 -1.8125 27.75 C-5.47513923 20.94795571 -11.51931914 15.41481608 -18.8125 12.75 C-29.65602422 10.34806366 -39.07899125 13.04222462 -47.08984375 20.7734375 Z " fill="#FEFEFE" transform="translate(120.8125,54.25)"/>
<path d="M0 0 C2.62195076 1.68073767 3.66412668 2.88508717 4.5625 5.8671875 C5.20517 9.41526147 5.20740646 11.49785805 3.8125 14.875 C1.89339509 17.12498507 0.72044058 17.92845955 -2 19 C-4.25390625 19.08203125 -4.25390625 19.08203125 -6.5625 18.8125 C-7.32691406 18.73644531 -8.09132812 18.66039063 -8.87890625 18.58203125 C-11.45098353 17.87624946 -12.41645005 17.13561324 -14 15 C-15.2420849 10.80206748 -15.45650316 7.12924465 -13.8125 3.0625 C-9.72872338 -1.58455615 -5.75702684 -1.5958904 0 0 Z " fill="#FEFEFE" transform="translate(146,38)"/>
</svg>
