<?xml version="1.0" encoding="UTF-8"?>
<svg version="1.1" xmlns="http://www.w3.org/2000/svg" width="48" height="48">
<path d="M0 0 C0.87269531 -0.0038269 1.74539063 -0.00765381 2.64453125 -0.01159668 C4.48699092 -0.0143149 6.32948924 -0.00695994 8.171875 0.00976562 C10.99045934 0.03117752 13.80649485 0.00996199 16.625 -0.015625 C18.41667229 -0.01298171 20.20834299 -0.00785669 22 0 C22.84175781 -0.00809692 23.68351562 -0.01619385 24.55078125 -0.02453613 C28.13136419 0.03278396 30.39761762 0.18098442 33.52929688 2.00195312 C35.73374916 5.79314264 35.57275697 9.21617695 35.53125 13.53125 C35.5350769 14.40394531 35.53890381 15.27664063 35.54284668 16.17578125 C35.5455649 18.01824092 35.53820994 19.86073924 35.52148438 21.703125 C35.50007248 24.52170934 35.52128801 27.33774485 35.546875 30.15625 C35.54423171 31.94792229 35.53910669 33.73959299 35.53125 35.53125 C35.53934692 36.37300781 35.54744385 37.21476562 35.55578613 38.08203125 C35.49846604 41.66261419 35.35026558 43.92886762 33.52929688 47.06054688 C29.73810736 49.26499916 26.31507305 49.10400697 22 49.0625 C21.12730469 49.0663269 20.25460938 49.07015381 19.35546875 49.07409668 C17.51300908 49.0768149 15.67051076 49.06945994 13.828125 49.05273438 C11.00954066 49.03132248 8.19350515 49.05253801 5.375 49.078125 C3.58332771 49.07548171 1.79165701 49.07035669 0 49.0625 C-0.84175781 49.07059692 -1.68351563 49.07869385 -2.55078125 49.08703613 C-6.13136419 49.02971604 -8.39761762 48.88151558 -11.52929688 47.06054688 C-13.73374916 43.26935736 -13.57275697 39.84632305 -13.53125 35.53125 C-13.5350769 34.65855469 -13.53890381 33.78585938 -13.54284668 32.88671875 C-13.5455649 31.04425908 -13.53820994 29.20176076 -13.52148438 27.359375 C-13.50007248 24.54079066 -13.52128801 21.72475515 -13.546875 18.90625 C-13.54423171 17.11457771 -13.53910669 15.32290701 -13.53125 13.53125 C-13.53934692 12.68949219 -13.54744385 11.84773437 -13.55578613 10.98046875 C-13.49846604 7.39988581 -13.35026558 5.13363238 -11.52929688 2.00195312 C-7.73810736 -0.20249916 -4.31507305 -0.04150697 0 0 Z M15 13.53125 C12.63019987 16.48502498 12.63019987 16.48502498 13 20.53125 C11.41531323 20.07761829 9.83230076 19.61813548 8.25 19.15625 C7.36828125 18.90101562 6.4865625 18.64578125 5.578125 18.3828125 C3.23919428 17.6102566 1.16557438 16.69499324 -1 15.53125 C-0.62095792 18.82200996 -0.62095792 18.82200996 1 21.53125 C0.34 22.19125 -0.32 22.85125 -1 23.53125 C-0.01 25.01625 -0.01 25.01625 1 26.53125 C1.99 26.53125 2.98 26.53125 4 26.53125 C4 27.19125 4 27.85125 4 28.53125 C3.01 29.02625 3.01 29.02625 2 29.53125 C3.32 30.52125 4.64 31.51125 6 32.53125 C4.35 33.19125 2.7 33.85125 1 34.53125 C1 35.19125 1 35.85125 1 36.53125 C9.7496204 37.34137896 9.7496204 37.34137896 17.5625 33.90625 C22.96073631 29.12271968 24.62550136 23.40374319 26 16.53125 C25.67 15.87125 25.34 15.21125 25 14.53125 C22.64400765 14.06373212 22.64400765 14.06373212 19.9375 13.90625 C19.01839844 13.83148438 18.09929688 13.75671875 17.15234375 13.6796875 C16.44207031 13.63070313 15.73179688 13.58171875 15 13.53125 Z " fill="#FEFEFE" transform="translate(13,-0.53125)"/>
</svg>
